<?xml version="1.0" encoding="UTF-8"?>
<svg id="Layer_2" data-name="Layer 2" xmlns="http://www.w3.org/2000/svg" xmlns:xlink="http://www.w3.org/1999/xlink" viewBox="0 0 239.3 156.85">
  <defs>
    <style>
      .cls-1 {
        fill: url(#linear-gradient);
      }
    </style>
    <linearGradient id="linear-gradient" x1="119.65" y1="156.85" x2="119.65" y2="0" gradientUnits="userSpaceOnUse">
      <stop offset="0" stop-color="#d3b599"/>
      <stop offset="1" stop-color="#ba8662"/>
    </linearGradient>
  </defs>
  <g id="Layer_4" data-name="Layer 4">
    <g>
      <g>
        <path d="M232.34,102.64c-2.04-.81-3.96-2-5.76-3.59-1.8-1.59-3.75-3.63-5.9-6.13-1.36-1.64-2.94-3.66-4.74-6.08-1.8-2.4-3.53-4.81-5.18-7.23-1.65-2.4-3.03-4.46-4.15-6.14-1.13-1.68-1.74-2.59-1.83-2.67-1.55-2.31-3.53-4.65-5.9-7.01-2.39-2.35-4.88-3.97-7.49-4.82,5.22-.41,9.61-2.01,13.17-4.78s6.26-6.24,8.07-10.4c1.81-4.16,2.71-8.38,2.69-12.63-.02-4.73-.89-8.82-2.6-12.24-1.7-3.42-4.07-6.24-7.08-8.44-3.01-2.21-6.46-3.83-10.39-4.88-3.91-1.05-8.05-1.56-12.41-1.54l-46.25.22v1.46s1.9,0,1.9,0c2.51-.01,4.66.87,6.46,2.65s2.76,3.92,2.86,6.43l.15,31.52,17.69-.08-.17-36.29h2.25c1.5-.02,3.27-.05,5.29-.12.68-.02,1.33-.02,1.98-.02,1.33,0,2.6.02,3.84.08,4.93.16,8.99,1.98,12.21,5.45,3.2,3.46,4.97,8.58,5.29,15.34.09,1.44.06,2.85-.12,4.21-.2,1.34-.38,2.47-.58,3.33-.95,4.26-2.47,7.58-4.6,9.96-2.11,2.37-4.49,4-7.14,4.89-2.66.88-5.29,1.38-7.91,1.48-.56.05-1.11.08-1.63.09-.3.02-.59.02-.88.02-.39,0-.75-.01-1.11-.02-1.07-.04-1.69-.06-1.89-.06v1.46c1.36.11,2.66.54,3.89,1.29.71.41,1.4.95,2.08,1.58,1.84,1.74,3.54,3.99,5.11,6.8.29.68.84,1.83,1.67,3.47.83,1.64,1.86,3.49,3.08,5.57,1.21,2.07,2.46,4.23,3.72,6.44,1.26,2.21,2.43,4.21,3.5,6s1.9,3.11,2.48,3.98c2.15,3.18,4.67,5.83,7.58,7.94,2.92,2.12,6.33,3.69,10.24,4.74,3.93,1.05,8.4,1.55,13.43,1.52l12.02-.06v-1.44c-2.62.01-4.94-.39-6.96-1.21Z"/>
        <path d="M168.68,101.5c-1.85-1.78-2.79-3.92-2.8-6.45l-.14-30.21h-.58c-1.95.01-3.69.38-5.32,1.12-1.31.61-2.43,1.4-3.45,2.42l-8.29,9.84.08,16.9c-.07,2.52-1.02,4.68-2.8,6.47-1.78,1.8-3.92,2.7-6.43,2.71h-1.89s0,1.45,0,1.45l39.88-.19v-1.44s-1.75,0-1.75,0c-2.51.01-4.69-.87-6.53-2.65Z"/>
        <path d="M156.85,147.01l-25.27-32.57-3.13-4.02-8.99-11.59,19.99-23.74,4.3-5.11,4.3-5.11,1.94-2.3c1.76-1.84,3.83-3.33,6.24-4.44,2.75-1.27,5.72-1.92,8.9-1.93h.58s.01,0,.01,0v-1.31s-.02,0-.02,0l-17.69.08-4.33.02-4.33.02-5.98.03v1.31s1.45,0,1.45,0c1.93,0,3.29.71,4.08,2.16.79,1.44.59,3-.55,4.65h.03s-30.21,39.59-30.21,39.59l.05,10.51c1.07,1.41,2.09,2.73,3.05,3.97,2.09,2.7,4.32,5.62,6.72,8.73,2.38,3.13,4.69,6.12,6.92,8.96,2.23,2.84,4.11,5.24,5.61,7.23,1.51,1.97,2.41,3.2,2.71,3.68,2.13,2.7,4.61,4.77,7.43,6.21,2.8,1.43,5.59,2.47,8.35,3.07,2.76.62,5.24.98,7.47,1.13,2.22.13,3.86.2,4.93.19l10.01-.05v-1.46c-3.01-.09-5.65-.77-7.92-2.07-2.28-1.29-4.5-3.24-6.63-5.84Z"/>
        <path d="M102.56,152.56c-1.8-1.78-2.74-3.92-2.86-6.45l-.14-29.93-.03-7.18v-2.08s-.04-7.09-.04-7.09v-.46c-1.32,1.06-2.75,2.1-4.3,3.16-3.85,2.63-8.34,4.9-13.35,6.81l.17,36.85c-.09,2.52-1.02,4.68-2.8,6.47s-3.92,2.7-6.43,2.71h-1.89s0,1.47,0,1.47l40.02-.19v-1.46s-1.9,0-1.9,0c-2.51.01-4.68-.87-6.47-2.65Z"/>
        <path d="M74.78,102.65c.92-.29,1.83-.6,2.71-.92,1.5-.53,2.94-1.1,4.32-1.69,3.15-1.37,6-2.91,8.53-4.64,3.89-2.66,6.92-5.31,9.1-7.96.23-.26.44-.54.65-.8l-.11-24.01c-.19-4.3,2.22-6.46,7.22-6.48h2.16s0-1.01,0-1.01v-.45s-36.54.17-36.54.17v.45s0,.99,0,.99h2.32c4.93-.03,7.41,2.13,7.43,6.49l-.03,23.34c-.24.43-.5.87-.79,1.29-1.17,1.81-2.61,3.44-4.3,4.92-.52.44-1.06.87-1.62,1.29-.86.64-1.77,1.23-2.69,1.76-2.11,1.25-4.37,2.26-6.79,3-3.47,1.08-7.14,1.62-11.01,1.64-7.35-.05-13.71-1.98-19.1-5.78-5.38-3.8-9.52-9.18-12.4-16.18-2.87-6.99-4.34-15.23-4.38-24.71s1.41-18.2,4.38-25.32c2.95-7.12,7.25-12.65,12.9-16.6,5.63-3.93,12.46-5.93,20.49-5.96,5.51-.03,10.63.87,15.38,2.68,4.74,1.82,8.85,4.63,12.3,8.42,3.45,3.8,6.05,8.85,7.83,15.12h1.3s-1.26-23.34-1.26-23.34c-2.82-1.53-6.23-2.94-10.24-4.22-4.01-1.29-8.42-2.31-13.21-3.07C64.51.34,59.44-.02,54.14,0c-10.93.05-20.49,2.24-28.69,6.58-8.2,4.35-14.5,10.49-18.9,18.44C2.13,32.96-.05,42.26,0,52.9s2.34,20.16,6.88,28.03c4.54,7.85,10.86,13.92,19,18.18,8.14,4.26,17.53,6.42,28.16,6.47,7.06-.03,13.43-.86,19.12-2.45.55-.15,1.08-.31,1.61-.47Z"/>
      </g>
      <g>
        <path class="cls-1" d="M232.34,102.64c-2.04-.81-3.96-2-5.76-3.59-1.8-1.59-3.75-3.63-5.9-6.13-1.36-1.64-2.94-3.66-4.74-6.08-1.8-2.4-3.53-4.81-5.18-7.23-1.65-2.4-3.03-4.46-4.15-6.14-1.13-1.68-1.74-2.59-1.83-2.67-1.55-2.31-3.53-4.65-5.9-7.01-2.39-2.35-4.88-3.97-7.49-4.82,5.22-.41,9.61-2.01,13.17-4.78s6.26-6.24,8.07-10.4c1.81-4.16,2.71-8.38,2.69-12.63-.02-4.73-.89-8.82-2.6-12.24-1.7-3.42-4.07-6.24-7.08-8.44-3.01-2.21-6.46-3.83-10.39-4.88-3.91-1.05-8.05-1.56-12.41-1.54l-46.25.22v1.46s1.9,0,1.9,0c2.51-.01,4.66.87,6.46,2.65s2.76,3.92,2.86,6.43l.15,31.52,17.69-.08-.17-36.29h2.25c1.5-.02,3.27-.05,5.29-.12.68-.02,1.33-.02,1.98-.02,1.33,0,2.6.02,3.84.08,4.93.16,8.99,1.98,12.21,5.45,3.2,3.46,4.97,8.58,5.29,15.34.09,1.44.06,2.85-.12,4.21-.2,1.34-.38,2.47-.58,3.33-.95,4.26-2.47,7.58-4.6,9.96-2.11,2.37-4.49,4-7.14,4.89-2.66.88-5.29,1.38-7.91,1.48-.56.05-1.11.08-1.63.09-.3.02-.59.02-.88.02-.39,0-.75-.01-1.11-.02-1.07-.04-1.69-.06-1.89-.06v1.46c1.36.11,2.66.54,3.89,1.29.71.41,1.4.95,2.08,1.58,1.84,1.74,3.54,3.99,5.11,6.8.29.68.84,1.83,1.67,3.47.83,1.64,1.86,3.49,3.08,5.57,1.21,2.07,2.46,4.23,3.72,6.44,1.26,2.21,2.43,4.21,3.5,6s1.9,3.11,2.48,3.98c2.15,3.18,4.67,5.83,7.58,7.94,2.92,2.12,6.33,3.69,10.24,4.74,3.93,1.05,8.4,1.55,13.43,1.52l12.02-.06v-1.44c-2.62.01-4.94-.39-6.96-1.21Z"/>
        <path class="cls-1" d="M168.68,101.5c-1.85-1.78-2.79-3.92-2.8-6.45l-.14-30.21h-.58c-1.95.01-3.69.38-5.32,1.12-1.31.61-2.43,1.4-3.45,2.42l-8.29,9.84.08,16.9c-.07,2.52-1.02,4.68-2.8,6.47-1.78,1.8-3.92,2.7-6.43,2.71h-1.89s0,1.45,0,1.45l39.88-.19v-1.44s-1.75,0-1.75,0c-2.51.01-4.69-.87-6.53-2.65Z"/>
        <path class="cls-1" d="M156.85,147.01l-25.27-32.57-3.13-4.02-8.99-11.59,19.99-23.74,4.3-5.11,4.3-5.11,1.94-2.3c1.76-1.84,3.83-3.33,6.24-4.44,2.75-1.27,5.72-1.92,8.9-1.93h.58s.01,0,.01,0v-1.31s-.02,0-.02,0l-17.69.08-4.33.02-4.33.02-5.98.03v1.31s1.45,0,1.45,0c1.93,0,3.29.71,4.08,2.16.79,1.44.59,3-.55,4.65h.03s-30.21,39.59-30.21,39.59l.05,10.51c1.07,1.41,2.09,2.73,3.05,3.97,2.09,2.7,4.32,5.62,6.72,8.73,2.38,3.13,4.69,6.12,6.92,8.96,2.23,2.84,4.11,5.24,5.61,7.23,1.51,1.97,2.41,3.2,2.71,3.68,2.13,2.7,4.61,4.77,7.43,6.21,2.8,1.43,5.59,2.47,8.35,3.07,2.76.62,5.24.98,7.47,1.13,2.22.13,3.86.2,4.93.19l10.01-.05v-1.46c-3.01-.09-5.65-.77-7.92-2.07-2.28-1.29-4.5-3.24-6.63-5.84Z"/>
        <path class="cls-1" d="M102.56,152.56c-1.8-1.78-2.74-3.92-2.86-6.45l-.14-29.93-.03-7.18v-2.08s-.04-7.09-.04-7.09v-.46c-1.32,1.06-2.75,2.1-4.3,3.16-3.85,2.63-8.34,4.9-13.35,6.81l.17,36.85c-.09,2.52-1.02,4.68-2.8,6.47s-3.92,2.7-6.43,2.71h-1.89s0,1.47,0,1.47l40.02-.19v-1.46s-1.9,0-1.9,0c-2.51.01-4.68-.87-6.47-2.65Z"/>
        <path class="cls-1" d="M74.78,102.65c.92-.29,1.83-.6,2.71-.92,1.5-.53,2.94-1.1,4.32-1.69,3.15-1.37,6-2.91,8.53-4.64,3.89-2.66,6.92-5.31,9.1-7.96.23-.26.44-.54.65-.8l-.11-24.01c-.19-4.3,2.22-6.46,7.22-6.48h2.16s0-1.01,0-1.01v-.45s-36.54.17-36.54.17v.45s0,.99,0,.99h2.32c4.93-.03,7.41,2.13,7.43,6.49l-.03,23.34c-.24.43-.5.87-.79,1.29-1.17,1.81-2.61,3.44-4.3,4.92-.52.44-1.06.87-1.62,1.29-.86.64-1.77,1.23-2.69,1.76-2.11,1.25-4.37,2.26-6.79,3-3.47,1.08-7.14,1.62-11.01,1.64-7.35-.05-13.71-1.98-19.1-5.78-5.38-3.8-9.52-9.18-12.4-16.18-2.87-6.99-4.34-15.23-4.38-24.71s1.41-18.2,4.38-25.32c2.95-7.12,7.25-12.65,12.9-16.6,5.63-3.93,12.46-5.93,20.49-5.96,5.51-.03,10.63.87,15.38,2.68,4.74,1.82,8.85,4.63,12.3,8.42,3.45,3.8,6.05,8.85,7.83,15.12h1.3s-1.26-23.34-1.26-23.34c-2.82-1.53-6.23-2.94-10.24-4.22-4.01-1.29-8.42-2.31-13.21-3.07C64.51.34,59.44-.02,54.14,0c-10.93.05-20.49,2.24-28.69,6.58-8.2,4.35-14.5,10.49-18.9,18.44C2.13,32.96-.05,42.26,0,52.9s2.34,20.16,6.88,28.03c4.54,7.85,10.86,13.92,19,18.18,8.14,4.26,17.53,6.42,28.16,6.47,7.06-.03,13.43-.86,19.12-2.45.55-.15,1.08-.31,1.61-.47Z"/>
      </g>
    </g>
  </g>
</svg>