<?xml version="1.0" encoding="UTF-8"?>
<svg id="Layer_2" data-name="Layer 2" xmlns="http://www.w3.org/2000/svg" xmlns:xlink="http://www.w3.org/1999/xlink" viewBox="0 0 193.03 75.88">
  <defs>
    <style>
      .cls-1 {
        fill: url(#linear-gradient-2);
      }

      .cls-2 {
        fill: url(#linear-gradient);
      }

      .cls-3 {
        fill: #1e2a3a;
      }
    </style>
    <linearGradient id="linear-gradient" x1="37.95" y1="51.86" x2="88.18" y2="51.86" gradientUnits="userSpaceOnUse">
      <stop offset="0" stop-color="#d3b599"/>
      <stop offset="1" stop-color="#ba8662"/>
    </linearGradient>
    <linearGradient id="linear-gradient-2" x1="76.91" y1="54.47" x2="151.77" y2="54.47" xlink:href="#linear-gradient"/>
  </defs>
  <g id="Layer_4" data-name="Layer 4">
    <g>
      <path class="cls-3" d="M31.22,17.97v-.33h-11.97v.33c3.79.17,4.36.62,4.36,2.31v6.75c0,2.18-3.62,3.41-6.75,3.41-5.88,0-11.89-5.3-11.89-15.96C4.98,6.29,9.67,1.15,15.8,1.15c4.44,0,9.17,2.71,11.8,8.92h.33l-1.03-9.26h-.37c-.24,1.16-.66,1.52-1.23,1.52-1.07,0-3.78-1.93-9.5-1.93C6.99.41,0,7.2,0,16.37c0,9.83,7.04,14.81,16.04,14.81,4.53,0,10.37-1.48,13.66-3.45l-.12-.29c-1.15.41-1.6.25-1.6-.86v-6.34c0-1.69.58-2.1,3.25-2.26Z"/>
      <path class="cls-3" d="M55.57,25.33l-7.69-20.61c-1.03-2.67-1.24-3.29-1.6-4.73h-.29c-.86,1.11-2.47,1.89-3.91,2.22l.95,2.43-7.49,20.28c-1.57,4.03-2.96,5.26-5.06,5.51v.33h9.42v-.33c-3.99-.25-4.69-1.89-3.41-5.26l2.26-6.13h9.88l2.91,7.97c1.36-.51,2.76-.95,4.18-1.31-.04-.12-.09-.24-.14-.36ZM39.03,18.22l4.6-12.67,4.65,12.67h-9.25Z"/>
      <path class="cls-3" d="M87.71,30.43c-1.68-.18-3.28-1.66-6.06-6l-6.01-9.13c3.46-.86,7.53-2.8,7.53-7.32s-3.95-7.16-11.56-7.16h-10.69v.33c2.75.16,3.29.58,3.29,2.26v21.11c.08,0,.15,0,.22,0,1.05,0,2.51.06,4.18.29v-8.84h1.77c.86,0,1.23.16,2.1,1.64l5.26,8.8c2.31,3.99,3.99,4.52,6.71,4.52,1.07,0,2.55-.08,3.29-.16v-.33s-.02,0-.03,0ZM70.95,15.34h-2.35V1.48h1.89c5.26,0,8.1,2.55,8.1,7.24,0,4.11-3.13,6.62-7.65,6.62Z"/>
      <path class="cls-3" d="M114.44,30.43c-1.68-.18-3.28-1.66-6.06-6l-6-9.13c3.45-.86,7.53-2.8,7.53-7.32s-3.95-7.16-11.56-7.16h-10.69v.33c2.75.16,3.29.58,3.29,2.26v24.76c0,1.67-.53,2.09-3.23,2.25-.02,0-.04,0-.06,0v.33h11.52v-.33c-3.25-.16-3.82-.58-3.82-2.26v-12.22h1.77c.86,0,1.23.16,2.1,1.64l5.27,8.8c2.3,3.99,3.99,4.52,6.7,4.52,1.07,0,2.55-.08,3.29-.16v-.33s-.02,0-.03,0ZM97.69,15.34h-2.35V1.48h1.89c5.27,0,8.1,2.55,8.1,7.24,0,4.11-3.13,6.62-7.65,6.62Z"/>
      <path class="cls-3" d="M137.83,23.28c-3.08,5.43-5.51,6.83-9.67,6.83h-4.07c-1.32,0-2.02-.58-2.02-1.85v-12.3h4.65c3.79,0,4.81,1.85,5.56,5.47h.37v-11.52h-.37c-.74,3.42-1.77,5.31-5.56,5.31h-4.65V1.48h4.89c4.81,0,6.91,1.31,9.26,6.42h.33l-1.36-7.08h-20.82v.33c2.72.16,3.29.58,3.29,2.26v24.76c0,1.67-.57,2.09-3.23,2.25-.02,0-.04,0-.06,0v.33h21.55l2.26-7.49h-.37Z"/>
      <path class="cls-3" d="M164.15.58c-.82.16-2.51.24-4.15.24h-15.75c-1.65,0-3.33-.08-4.15-.24l-1.48,7.32h.33c2.47-5.31,4.44-6.42,9.05-6.42h1.93v26.7c0,1.68-.58,2.1-3.29,2.26v.33h10.98v-.33c-2.72-.16-3.29-.58-3.29-2.26V1.48h1.93c4.57,0,6.58,1.11,9.05,6.42h.33l-1.48-7.32Z"/>
      <path class="cls-3" d="M191.55.58c-.82.16-2.51.24-4.16.24h-15.75c-1.65,0-3.33-.08-4.16-.24l-1.48,7.32h.33c2.47-5.31,4.44-6.42,9.05-6.42h1.94v26.7c0,1.68-.58,2.1-3.29,2.26v.33h10.98v-.33c-2.72-.16-3.29-.58-3.29-2.26V1.48h1.93c4.57,0,6.58,1.11,9.05,6.42h.33l-1.48-7.32Z"/>
      <path class="cls-2" d="M87.69,70.91c-.1,0-.21-.03-.33-.09-7.19-3.89-26.26-8.12-35.14-9.6-.03,0-.07,0-.1,0-.23,0-.44.13-.54.33-2.2,4.3-4.23,8.66-5.36,11.49-.71,1.6-.79,2.09-.8,2.49-.02.22-.28.33-.53.36-.44-.04-1.46-1.04-1.52-1.6-.03-1.22,2.55-6.86,5.93-13.46l-.31-.06c-.7-.41-1.69-2.02-.25-2.03,0,0,0,0,0,0,.03,0,.04.04.08.04h0l1.47-.15h.09c1.57-3.03,3.2-6.16,4.76-9.12.22-.42-.1-.89-.56-.89-.02,0-.05,0-.07,0h0s-.08,0-.11,0c-.59,0-.68-.5-.61-.68,1.18-.34,2.65-1.65,4.04-3.43.02-.03.04-.06.06-.09,2.1-3.82,3.88-6.92,4.71-8.22.08-.14.16-.19.29-.2.1-.06.22-.09.36-.09.65,0,1.63.62,1.83,1.57.02.11,0,.24-.04.35-1.02,2.38-2.61,4.65-4.29,6.48-.03.03-.06.07-.09.11-2.06,3.78-4.6,8.48-7.01,13.11l-.34.6c12.78-2.72,25.73-14.11,24.97-21.79-.3-3.04-2.78-4.76-5.85-5.65-2.05-.59-4.36-.82-6.46-.82-.93,0-1.83.05-2.64.13-.04,0-.09,0-.13,0-.95.09-1.91.22-2.87.39-.56.1-1.13.22-1.69.35-5.64,1.29-11.18,3.99-14.9,7.81-3.09,3.24-3.96,6.35-3.72,8.73.29,2.89,2.41,4.43,5.25,4.43.27,0,.55-.01.83-.04.48-.05.91-.13,1.42-.27.02,0,.05,0,.08,0,.7,0,2.42,1.82,1.22,2.07-.51.14-1.03.23-1.55.29-.27.02-.53.04-.8.04-4.07,0-8.03-3.04-8.47-7.39-.33-2.85.87-6.26,3.99-9.59,2.42-2.52,5.6-4.56,9.08-6.06,1.96-.85,4.03-1.52,6.1-2,1.64-.39,3.29-.66,4.9-.81.67-.07,1.38-.1,2.12-.11h.22c1.33,0,2.75.1,4.18.33,5.51.87,11.1,3.59,11.68,9.48.79,7.97-10.43,17.74-21.79,21.49-.6.19-.55,1.06.07,1.17,9.9,1.9,23.2,5.21,28.76,8.32.05.03.1.07.15.11.98.98.85,2.17.21,2.17Z"/>
      <path class="cls-1" d="M150.71,50.15c-.08,0-.15.01-.23.04-1.43.54-6.24,1.54-10.18,1.93-1.07.1-2.08.17-2.95.17-1.13,0-2.03-.11-2.52-.38-.21-.11-.33-.36-.29-.6.06-.42.24-.93.49-1.6.24-.64-.36-2.24-1.24-2.29h-.06c-1.71,0-4.13,1.04-6.03,2.1-.1.05-.2.08-.3.08-.25,0-.49-.15-.57-.41-.14-.41-.34-.83-.53-.94-.13-.08-.27-.11-.41-.11-.21,0-.4.1-.49.29-.29.56-.54,1.06-.78,1.51-.04.08-.09.14-.16.19-1.89,1.55-4.57,3.52-6.79,3.8-.03,0-.06,0-.09,0-.44,0-.75-.45-.56-.87.4-.91.99-1.75,1.58-2.47.27-.32-.29-1.92-1-1.92-.13,0-.27.05-.4.17-.02.03-.23.2-.53.48-.11.1-.26.16-.4.16-.18,0-.37-.08-.49-.23-.45-.55-1.1-1.02-1.92-1.02-.07,0-.14,0-.21,0-1.69.17-4.03,1.57-5.39,3.27-.02.03-.05.06-.09.09-1.8,1.43-5.59,3.98-7.38,4.39-.05,0-.09.01-.14.01-.29,0-.55-.21-.6-.51-.07-.39-.13-.86-.18-1.33-.07-.69-.09-1.35-.1-1.83-.02-.67-.35-1.54-1.2-1.54-.04,0-.09,0-.13,0-1.07.1-2.66,1-4.37,2.04-.1.06-.21.09-.32.09-.25,0-.49-.15-.57-.4-.14-.4-.34-.82-.53-.93-.12-.07-.27-.11-.4-.11-.21,0-.41.09-.49.29l-.34.68s-.05,0-.07.02c-1.1.37-2.22.61-3.34.73-.38.03-.76.06-1.14.06-.77,0-1.54-.09-2.3-.29-.14-.04-.26-.13-.34-.26-.45-.65-1.33-1.16-2.05-1.16-.05,0-.1,0-.15,0-.48.05-.7.42-.69.9-.1-.11-.26-.22-.42-.22h-.04c-1.5.28-4.19,3.22-3.94,5.69.17,1.7,1.4,3.58,3.03,3.58.07,0,.14,0,.21,0,2.38-.24,4.7-4.28,4.62-6.37l.04-.09c.87.13,1.72.19,2.55.19.53,0,1.05-.03,1.57-.08.01,0,.03,0,.04,0h.07c.45,0,.76.47.55.88l-.15.3c-.3.5-.44.91-.56,1.25-.03.08-.05.17-.04.26.08,1.03.51,1.47.93,1.47.17,0,.33-.08.47-.21,1.95-2.15,4.46-4.11,7.28-5.5.09-.04.19-.07.28-.07.3,0,.58.22.61.55.2,2.05.55,4.13,2.52,4.13.2,0,.41-.02.65-.07,1.59-.3,3.51-1.36,5.17-2.51.1-.08.23-.11.35-.11.21,0,.41.11.52.3.46.84,1.22,1.45,2.09,1.45.07,0,.13,0,.19,0,1.12-.11,3.15-1.58,4.56-2.8.11-.1.25-.14.39-.14.22,0,.44.12.56.35.39.78.88,1.22,1.95,1.42.18.03.37.05.56.05,1.2,0,2.59-.56,3.83-1.25.09-.05.19-.07.28-.07.24,0,.47.15.56.4.17.43.48.82.82.82.16,0,.32-.09.48-.29,2.05-2.64,5.2-4.92,8.24-5.91.07-.02.13-.03.19-.03.32,0,.6.26.61.6,0,.19.01.39.03.59.14,1.43.85,2.8,2.42,3.26.58.15,1.37.21,2.3.21.88,0,1.88-.06,2.96-.17,3.68-.37,8.14-1.25,10.78-2.08.74-.24.17-2.09-.72-2.09ZM83.06,55.04c-.43,1.72-1.96,4.2-3.62,4.36-.05,0-.09,0-.13,0-1.73,0,.17-3.86,2.6-5.24.09-.05.18-.07.27-.07.12,0,.25.04.36.11.08.05.16.1.24.16.23.14.36.41.29.67ZM114.49,51.58c-1.38,1.19-4.19,3.42-4.94,3.42-.09,0-.15-.03-.18-.11-.28-1.07,2.5-3.92,4.65-4.36.04,0,.07,0,.11,0,.19,0,.34.1.45.23.21.25.16.62-.09.83Z"/>
    </g>
  </g>
</svg>