<?xml version="1.0" encoding="UTF-8"?>
<svg id="Layer_2" data-name="Layer 2" xmlns="http://www.w3.org/2000/svg" xmlns:xlink="http://www.w3.org/1999/xlink" viewBox="0 0 272.21 252.79">
  <defs>
    <style>
      .cls-1 {
        fill: url(#linear-gradient-5);
      }

      .cls-2 {
        fill: url(#linear-gradient-4);
      }

      .cls-3 {
        fill: url(#linear-gradient-3);
      }

      .cls-4 {
        fill: url(#linear-gradient-2);
      }

      .cls-5 {
        fill: #fff7f2;
      }

      .cls-6 {
        fill: url(#linear-gradient);
      }
    </style>
    <linearGradient id="linear-gradient" x1="200.34" y1="195.42" x2="227" y2="195.42" gradientUnits="userSpaceOnUse">
      <stop offset="0" stop-color="#d3b599"/>
      <stop offset="1" stop-color="#ba8662"/>
    </linearGradient>
    <linearGradient id="linear-gradient-2" y1="203.33" x2="210.74" y2="203.33" xlink:href="#linear-gradient"/>
    <linearGradient id="linear-gradient-3" x1="192.8" y1="208.65" x2="209.23" y2="208.65" xlink:href="#linear-gradient"/>
    <linearGradient id="linear-gradient-4" x1="183.02" y1="214.41" x2="193.46" y2="214.41" xlink:href="#linear-gradient"/>
    <linearGradient id="linear-gradient-5" x1="164.66" y1="194.73" x2="193.17" y2="194.73" xlink:href="#linear-gradient"/>
  </defs>
  <g id="Layer_4" data-name="Layer 4">
    <g>
      <path class="cls-5" d="M272.2,184.73c0-9.53-.01-20.3-.01-31.3-.02-38.4-.04-78.1,0-79.6.03-2.08-1.23-3.94-3-4.43-.43-.12-.79-.06-1.07.16-.49.39-.71,1.31-.66,2.72.05,1.28.04,2.55.03,3.89,0,.53-.01,1.06-.01,1.6-.6.21-1.01.22-1.24.04-.24-.19-.33-.62-.26-1.32.12-1.2.12-2.51.01-4.01-.19-2.64-2.1-4.64-4.56-4.76-1.21-.05-1.86.65-1.95,2.1-.05.78-.02,1.58.01,2.36.06,1.46.12,2.97-.38,4.44-.87-.02-1.66-.08-2.5-.48.26-2.87-.06-5.71-.36-7.87-.2-1.58-1.65-1.86-1.87-1.9-1.02-.49-1.82-.75-2.4-.47-.57.28-.87,1.04-1.12,2.12-.23.97-.22,1.95-.19,2.89.01.52.03,1.05,0,1.57,0,.15,0,.3-.01.45,0,.6,0,1.17-.52,1.59-.25-.18-.53-.19-.81-.21-.33-.02-.69-.04-1.03-.32v-6.6c0-1.39-2.24-2.33-3.2-2.74l-.2-.08c-1.15-.5-1.99-.57-2.57-.21s-.9,1.13-.96,2.36c-.03.52-.02,1.05-.01,1.57,0,.5.02,1.03,0,1.53-.02.33,0,.67.02.99.04.69.07,1.33-.18,1.96-2.71-.45-2.71-.47-2.61-3.15.09-2.37-.02-4.61-2.3-6.12-.98-.65-1.76-1.03-2.88-.01-1.78,1.62-2.48,3.25-2.26,5.26.11.99.08,2,.05,3.07-.01.45-.02.9-.02,1.37-.37.04-.73.04-1.08.04-.84.01-1.7.02-2.61.46v-2c0-1.57,0-3.04,0-4.51-.01-1.99-.45-2.3-2.23-2.38,0-.02.02-.03.02-.05v-3.94c0-3.78,0-7.57,0-11.35v-.14c0-.94,0-1.91-.45-2.78-.69-2.46-3.23-2.33-3.25-2.32h-2.74s-.08.02-.11.05c-.03.02-.04.06-.04.11l.21,5.6c-1.07-.06-2.03.18-3.13.45l-.3.07c0-1.1.04-2.09.06-2.98.09-2.81.16-4.67-.86-5.72-.69-.71-1.83-1.03-3.7-1.03-.06,0-.1.04-.12.09l-.37.11c-3.49.98-4.79,1.34-4.77,5.18,0,.25,0,.5-.01.76-.02.83-.05,1.69.22,2.52-.49.57-1.13.73-1.87.91-.45.11-.91.22-1.37.45-.28-1.19-.23-2.4-.19-3.56.05-1.29.1-2.63-.28-3.97-.02-.05-.06-.09-.12-.11-1.69-.23-3.24.44-4.69,1.15-1.1.54-1.7,1.75-1.69,3.39.02,3.33,0,6.72,0,10-.02,5.58-.05,11.36.09,17.04.05,2.04.05,4.12.05,6.13,0,3,0,6.1.16,9.16.09,1.65.11,3.33.12,4.96.01,1.18.02,2.4.06,3.6-.88.57-1.76.23-2.6-.09-.34-.13-.66-.26-.98-.33-.7-.15-1.39-.19-2.06-.24-.22-.01-.43-.03-.64-.04-.58-.05-1.12.13-1.53.52-.41.39-.63.92-.63,1.51.01,1.14,0,2.29,0,3.42v1.18c-.3.03-.56.02-.78,0-.22-.01-.43-.02-.64,0-.71.11-1.2.02-1.49-.25-.3-.29-.42-.81-.36-1.59.08-1.08.06-2.19.04-3.25,0-.47-.02-.94-.02-1.41,0-.07-.05-.13-.11-.14l-5.95-1.4c-.64-.15-1.29.05-1.75.53-.34.36-.49.86-.48,1.35l.02.47c.01.36.01.97,0,1.34,0,.24,0,.49,0,.72.02.57.04,1.11-.18,1.65-.83-.16-2.83-.3-3.77-.25l.25-7.38s-.04-.08-.05-.11c-1.2-.94-2.62-1.06-4-1.18-.39-.04-.8-.07-1.18-.12-1.03-.14-1.63-.06-2.02.27-.47.41-.57,1.2-.58,2.24v1.55c0,1.59-.02,2.5-.43,2.85-.29.25-.84.28-2,.09-.73-.12-1.27-.74-1.27-1.48v-4.66c0-.79-.53-1.49-1.29-1.71l-3.66-1.03s-.06,0-.09.01c-.02-27.26.01-48.18.18-50.11.06-.72-.04-1.43-.13-2.11-.06-.47-.13-.97-.14-1.45-.02-1.16-.91-2.12-2.09-2.3-.97-.13-2.21.16-2.76,1.14-.39.7-.35,1.52-.3,2.31.01.21.02.42.03.66.02,1.17.04,1.81-.22,2.02-.25.2-.88.06-2.05-.19-.02,0-.05-.01-.08-.01-.09-.02-.17-.03-.25-.13,0-6.4-.07-6.49-5.74-8.1-.05-.01-.09,0-.12.02s-.06.06-.06.11c-.16,1.2-.15,2.43-.13,3.61.01,1.12.02,2.28-.11,3.42-1.86-.36-3.84-.77-5.81-1.29v-1.52c0-1.36,0-2.64,0-3.95v-.15c.02-.66.03-1.48-.78-1.74-.46-.15-.93-.33-1.37-.5-.88-.34-1.78-.69-2.73-.81V.15s0-.04-.01-.06c0,0,0,0,0-.01,0,0-.01-.02-.02-.02-.01-.02-.02-.03-.04-.04-.02-.01-.04-.02-.06-.02t-.01,0h0s-.04,0-.06.02c0,0-.02,0-.02.01,0,0-.01,0-.02.01-.91.49-2.72.92-4.34,1.42-3.52,1.08-7.9,2.43-9.83,5.3,0,.03-.02.06-.02.09l.42,11.59c0,.06.05.12.11.13.01,0,.02,0,.04,0,.05,0,.09-.02.12-.06,2.89-4.21,6.9-5,10.12-5.64,1.33-.26,2.47-.49,3.35-.93v18.54c-.25-.02-.49-.02-.75,0-3.4.23-4.46,1.39-4.39,4.79.01.52.09,1.04.16,1.55.13.97.28,1.97-.01,2.98-.64-.15-1.23.04-1.81.22-.58.19-1.13.36-1.66.14-.23-.98-.28-1.97-.32-2.92-.05-1.08-.09-2.11-.39-3.13-.02-.06-.09-.11-.15-.1-2.33.13-3.56.33-4.22,1.09-.63.71-.69,1.9-.57,3.71.37,5.76.39,11.29.39,17.94v6.53c-.67-.07-1.28-.27-1.87-.46-.74-.23-1.44-.46-2.2-.42-.52.02-.91-.09-1.17-.34-.28-.26-.42-.71-.41-1.32,0-.67-.07-1.35-.14-2-.08-.73-.16-1.47-.13-2.21.23-5.58-.05-5.94-6.09-7.66-1.78-.5-4.69.4-5.65,1.76-1.49,2.09-1.27,5.78-1.08,9.04.06.97.12,1.89.12,2.72-.63-.15-1.23.01-1.81.17-.5.13-1.02.27-1.58.23-.39-2.21-.35-4.39-.31-6.49.02-.94.03-1.92.01-2.88-.03-1.21-.15-2.04-.66-2.44-.42-.33-1.05-.35-2.17-.08-3.64.86-5.82,1.68-5.48,5.86.15,1.86.11,3.78.07,5.64-.01.81-.03,1.64-.03,2.47-.8.37-1.66.71-2.72.57-.62-2.03-.58-4.18-.54-6.26.02-.73.03-1.48.02-2.23-.02-1.16-.37-1.97-1.06-2.43-1.2-.8-2.93-.16-3.27-.03l-.05.02c-.86.35-2.46.99-2.98,1.69-.31.42-.46,1.24-.47,2.52,0,2.15,0,4.29,0,6.4v2.26c-1.33.52-2.41.81-3.54.96.19-2.91-.06-5.82-.37-8.52v-.08c-.18-1.47-.26-2.21-.7-2.51-.44-.3-1.15-.13-2.59.24-.03,0-3.39,1.06-4.28,2.09-.48.56-.58,6.39-.56,14.75-.5.09-1.63.15-2.06.19-1.65.16-3.36.33-4.08,2.57-.34,1.05-.21,2.1-.09,3.12.11.88.21,1.72.02,2.52-.38.27-.76.3-1.17.33-.21.02-.43.04-.65.1-.26.07-.48.04-.64-.08-.19-.15-.29-.45-.27-.84.04-.95.02-1.92.01-2.85-.02-.95-.04-1.94.01-2.91,0-.08-.05-.14-.12-.15-2.64-.36-4.36-.39-5.4.52-1.21,1.06-1.44,3.36-1.44,7.49-.79.29-1.5.42-2.23.4-.29-1.43-.36-3.99-.36-5.91,0-.16-.07-.3-.19-.4-.28-.22-.81-.27-1.36-.25v-1.11c0-.86.01-1.73,0-2.61,0-.36,0-.74.01-1.11.04-1.46.08-2.97-.93-4.3-.03-.02-.06-.04-.09-.05l-10-1.38c-.07-.04-.13-.07-.21-.1-.42-.14-.92-.09-1.41.16-1.14.57-1.89,1.23-1.86,2.58.04,1.7.03,3.43.02,5.1,0,.66,0,1.32,0,1.98,0,2.4-.17,2.58-2.52,2.73h-.13c-.29.02-.62.03-.97.36-.07-1.17-.07-2.31-.07-3.42,0-2.02,0-3.93-.37-5.81-.18-.91-1.04-1.51-1.95-1.37-.6.09-1.16.3-1.7.51l-.15.05c-1.72.64-2.53,1.9-2.36,3.64.11,1.04.08,2.11.06,3.16-.03,1.29-.06,2.62.16,3.94.06.36,0,.66-.18.9-.32.44-.96.61-1.44.67-.3.04-.51.01-.62-.09-.14-.13-.12-.44-.1-.73.02-.2.03-.41,0-.59-.28-1.48-.25-2.99-.22-4.46.01-.63.03-1.29.01-1.94-.02-1.25-.28-2-.8-2.36-.49-.35-1.22-.33-2.27.04-.35.12-1.15.4-1.86.66-.86.31-1.44,1.1-1.47,2.02-.06,1.88-.07,3.84-.08,5.73,0,1.36,0,2.65-.03,3.85-.39.31-.73.32-1.14.33-.25,0-.5.01-.79.09.05-3.28-.15-6.58-.61-10.08-.07-.52-.53-.87-1.06-.82-.8.09-1.72.35-2.27.51-.13.04-.25.07-.33.09-2.49.66-2.67,2.34-2.67,5.02,0,3.9.35,133.5.36,137.41-.48.26-.96.52-1.44.78-.04.02-.06.05-.08.09,0,.04,0,.08.02.11.46.72.98.96,1.53,1.05l.25.04c.18.02.36.02.54.03,1.27.03,2.55.01,3.8,0,1.94-.03,3.95-.05,5.93.12,0,.02-.02.04-.02.05v21.28c5.21.29,21.61,1.17,29.86,1.61v-.36l-25.76-1.31h0c-.23,0-.45-.02-.67-.04-1.11-.06-2.15-.12-3.13-.17v-21.01s0-.02-.01-.04c.06,0,.13.01.2.02.06,0,.14.01.21.01.97,0,2.3-.58,3.41-1.11v18.93l16.31.82c-.03-6.15-.08-19.03-.14-27.75-.18-26.91-.38-57.41.15-75.37.13-4.52,4.53-11.55,11.41-15.03,4.67-2.36,12.02-3.9,20.9,1.71-5.38-1.94-10.55-1.89-15.01.16-1.95.9-3.61,2.09-4.98,3.39-2.99,2.85-4.63,6.85-4.62,11l.37,106.08s33.03,1.73,36.87,1.93v-.29s-.08,0-.12,0c.05,0,.1-.04.12-.08.01-.02.02-.04.02-.06v-4.66c0-5.86,0-12.7,0-17.83.24.04.49.05.73.05,1.27.04,2.55.02,3.8,0,2.1-.03,4.26-.06,6.39.15.05,0,.11.01.17.01-.05.02-.08.06-.08.12v4.7c0,5.65,0,12.12,0,17.26v.88s.01.02.02.04h-.02v.29c24.36,1.25,50.68,2.6,74.48,3.82.02.05.06.09.12.09s.09-.03.12-.08h.02v-.29s0,0,0,0v-24.66c.2.02.4.03.59.03,1.27.04,2.55.02,3.8,0,2.07-.03,4.21-.06,6.31.15,0,0,0,0,0,.01v25.02h0v.29s.06,0,.1,0c.02.01.03.02.05.02.02,0,.03-.01.05-.02,37.25,1.9,65.92,3.35,66.67,3.38h.14v-4.09c0-6.68,0-10.61,0-16.72v-6.15c0-1.01.24-1.73.74-2.2.93-.88,2.64-.87,4.94-.76,5.31.27,9.16-3.48,12.88-7.09,3.53-3.44,7.16-6.99,12.07-7.05.13,0,.26,0,.39,0h.29v-.14c0-6.02,0-14.31,0-23.84ZM16.53,218.07c-1.24.6-2.93,1.42-3.97,1.32-1.39-.13-2.79-.18-4.18-.18-.76,0-1.51.01-2.25.02-1.24.02-2.52.04-3.78,0-.76-.02-1.42-.04-1.99-.84,2.57-1.42,5.2-2.74,8.02-4.01.47-.21.77-.21,1.23,0,2.21,1.01,6.33,2.91,7.46,3.43-.17.08-.35.16-.53.25ZM43.26,73.37c-.01.37-.02.75-.01,1.12.02.87.01,1.75,0,2.6v1.12c-.62.05-1.19.16-1.29.18-.26,0-2.59,0-3.17.72-.53.67-.37,2.2-.23,3.43.05.47.1.92.1,1.23-.01,2.21-1.48,2.57-3.27,2.74,0-.41-.01-.81-.02-1.22-.05-3.39-.1-6.91.19-10.36.16-1.93-.73-3.5-1.59-5.01-.31-.55-.63-1.11-.9-1.69-.04-.09-.09-.17-.15-.25l9.5,1.31c.91,1.24.87,2.61.83,4.06ZM155.94,91.88l3.66,1.04c.63.18,1.08.77,1.08,1.42v4.66c0,.88.64,1.63,1.51,1.77,1.1.17,1.82.21,2.24-.16.5-.43.53-1.35.53-3.08v-1.55c0-1.17.14-1.73.48-2.03.31-.27.85-.33,1.78-.2.39.06.8.09,1.2.13,1.31.11,2.65.23,3.78,1.06l-.26,7.46s.02.09.05.11c.03.03.07.05.11.04.84-.08,3.21.08,3.97.26.06.02.13-.02.16-.08.29-.64.27-1.28.25-1.89,0-.3-.02-.58,0-.86.04-.4.01-.8,0-1.2,0-.19-.02-.37-.02-.56,0-.47.2-.91.57-1.21.37-.3.84-.4,1.3-.3l5.83,1.38c0,.43.01.87.02,1.3.02,1.06.04,2.16-.04,3.22-.06.88.08,1.47.46,1.82.27.25.65.38,1.16.38.18,0,.36-.01.57-.04.18-.03.37-.02.59,0,.28.02.59.04.97-.02.07,0,.12-.07.12-.14v-1.31c0-1.13.01-2.28,0-3.43,0-.5.18-.96.53-1.29.35-.32.81-.47,1.31-.44.22.02.43.04.65.05.66.04,1.34.09,2.02.23.3.07.6.19.93.32.49.19,1,.39,1.55.42,0,0,0,.01,0,.02.66,1.16.37,2.64.28,3.87-.04.45-.08.91-.08,1.37,0,.94.18,1.53.57,1.86.36.3.89.39,1.65.26.19-.03.39,0,.6.05.42.08.88.16,1.46-.21.02-.02.05-.04.06-.07.11-.3.04-.62-.03-.96-.08-.37-.16-.75-.03-1.13.17-.49.12-1.03.07-1.54-.09-.9-.16-1.74.81-2.35.98-.62,1.85-.29,2.77.07.43.16.88.34,1.34.4,1.73.25,2.47,1.18,2.34,2.94-.08,1.03-.06,2.07-.04,3.09.01.44.02.88.02,1.31,0,.08.06.14.13.15.33.04.64.04.94.03.55,0,1.03,0,1.48.23.02.01.05.02.07.02.02,0,.04,0,.06-.01.04-.02.07-.05.08-.1.26-.98.23-1.97.2-2.93-.02-.5-.04-1.03-.01-1.54.01-.14,0-.29,0-.44-.01-.6-.02-1.11.59-1.43.35-.18.58-.4.73-.66.04,1.2.05,2.47.05,3.76,0,2.7-.06,5.47-.09,7.72-.03,1.86-.05,3.78-.03,5.68.04,2.46.03,4.96.02,7.38,0,2.3-.02,4.68.01,7.02.02,1.38.06,2.77.1,4.12.11,3.44.21,6.99-.08,10.49-.14,1.69-.02,3.42.09,5.08.02.38.05.76.08,1.14.16,2.67.04,5.37-.07,8-.07,1.66-.15,3.37-.15,5.06-.01,4.41.06,8.88.12,13.21.06,4.24.13,8.62.12,12.94,0,.08.06.15.15.15.08,0,.15-.06.15-.14,0-4.32-.06-8.71-.12-12.95-.06-4.33-.13-8.8-.12-13.2,0-1.69.08-3.4.15-5.06.11-2.63.23-5.35.07-8.03-.02-.38-.05-.76-.08-1.14-.11-1.66-.23-3.37-.09-5.04.29-3.51.19-7.08.08-10.52-.04-1.35-.08-2.75-.1-4.12-.03-2.33-.02-4.71-.01-7.01.01-2.43.02-4.93-.02-7.39-.02-1.89,0-3.81.03-5.67.05-3.59.17-8.31.01-12.4,0-.01-.01-.02-.02-.04h0v-.02c0-.2,0-.4,0-.61,0-.11,0-.22,0-.32-.01-5.59-.08-11.27-.14-16.77l-.05-3.84c-.11-9.57-.07-18.58-.04-28.13,0-2.42.02-4.86.02-7.32,0-.63,0-1.18.01-2.4l.08-.02c1.65.02,2.67.32,3.26.94.93.97.87,2.77.78,5.51-.03.94-.06,2-.06,3.18,0,.04.02.08.05.11s.08.04.12.03l.49-.12c1.13-.28,2.11-.51,3.2-.43.04,0,.08-.01.11-.04.03-.02.05-.06.05-.11l-.21-5.61h2.6s2.33-.13,2.96,2.14c.43.83.43,1.72.43,2.67v.14c0,3.78,0,7.57,0,11.35v3.94s.02.02.02.04c-.04,0-.06,0-.09,0-1.32-.03-4.15,1.08-5.2,2.07-1.42,1.34-1.42,3.35-1.41,5.3v.12c.05,29.14-.08,110.7-.19,121.4.09,0,.19.01.29.02v.04c0,.08-.06.15-.15.15s-.15-.06-.15-.15v-.06c-3.31-.24-6.37-.46-8.26-.58-1.5-.1-2.53.32-2.98,1.22-1.99,3.93-15.83,18.63-15.96,18.77-.67.54-16.7,2.39-34.76,4.28,0-16.73-.04-40.11-.08-64.59-.04-20.54-.08-42.21-.09-60.91,0,0,0,.01.01.01ZM105.29,49.11c0-.08.06-.15.14-.15h0c.08,0,.14.06.15.14,0,.06,0,.13,0,.2,5.52,1.58,5.68,1.9,5.45,7.24-.04.76.05,1.52.13,2.25.07.64.15,1.31.14,1.97-.01.69.16,1.21.5,1.53.32.31.79.45,1.39.42.7-.04,1.38.18,2.1.41.65.2,1.32.42,2.09.48.04,0,.08-.01.11-.04.03-.02.05-.06.05-.11v-6.68c0-1.56,0-3.05,0-4.5l8.53,1.72c1.18.24,2.03,1.28,2.03,2.48v8.86l2.88.64.12.02.18.04V30.83c.91.12,1.78.46,2.62.79.46.18.93.36,1.39.51.56.18.59.69.58,1.46v.14c-.02,1.31-.02,2.6-.01,3.96v1.63c0,.07.05.13.11.14,2.06.56,4.15.98,6.09,1.35.04,0,.08,0,.12-.03.03-.02.05-.06.06-.1.16-1.21.14-2.43.13-3.61-.02-1.12-.03-2.27.11-3.4,5.35,1.52,5.36,1.59,5.36,7.81,0,.03,0,.06.02.08.16.24.35.27.47.29h.08c1.32.3,1.92.43,2.28.13.36-.29.35-.9.32-2.28,0-.21-.02-.42-.03-.63-.04-.75-.09-1.53.26-2.15.49-.86,1.59-1.11,2.47-.99.9.13,1.82.86,1.84,2.01.01.5.08,1,.15,1.48.09.67.18,1.36.12,2.04-.29,3.27-.19,58.2-.09,111.31.04,24.5.08,47.89.08,64.62-8.19.86-16.78,1.73-24.53,2.48-.1.01-.2.02-.29.03-11.7,1.14-21.45,2.03-24.96,2.26-.11-21.02-.05-43.21,0-64.68.09-35.92.19-73.42-.44-108.2-.09-.02-.19-.05-.3-.08v-.11ZM88.39,221.42c-1.39-.14-2.79-.18-4.17-.18-.76,0-1.51.01-2.26.02-1.24.02-2.52.04-3.78,0-.76-.02-1.42-.04-1.99-.84,2.57-1.42,5.19-2.73,8.02-4.01.47-.21.76-.21,1.22,0,2.22,1.02,6.34,2.92,7.46,3.43-.16.08-.35.16-.53.26-1.24.6-2.92,1.42-3.97,1.32ZM162.9,248.55c-23.71-1.21-49.91-2.55-74.19-3.81,0-.02.02-.04.02-.05,0-5.27,0-12.17,0-18.14v-4.7c0-.06-.04-.1-.09-.12,1.04-.03,2.45-.67,3.57-1.22v1.51c0,5.25.02,9.51.05,12.77.02,3.26.06,5.5.12,6.72,0,.08.06.13.14.14,3.11.09,13.62.69,25.79,1.39,17.59,1.01,39.43,2.26,44.53,2.26h.05v3.27ZM162.9,244.98h-.06c-5.08,0-26.92-1.25-44.51-2.26-12-.69-22.39-1.28-25.67-1.38-.1-2.52-.15-8.97-.16-19.19.84.02,4.19.12,9.52.29,12.35.4,35.31,1.14,60.87,1.79v20.75ZM174,223.79c-1.39-.14-2.79-.18-4.17-.18-.76,0-1.51.01-2.25.02-1.24.02-2.52.04-3.79,0-.23,0-.45-.01-.67-.04-.02-.01-.05-.03-.08-.03-.01,0-.02.01-.04.02-.44-.08-.84-.27-1.21-.79,2.57-1.42,5.19-2.73,8.02-4.01.47-.21.76-.21,1.22,0,2.22,1.01,6.34,2.91,7.46,3.43-.16.08-.35.16-.53.26-1.24.6-2.92,1.42-3.97,1.32ZM240.59,248.04c-7.4-.28-59.77-2.47-62.78-2.59v-20.98c26.03.67,52.2,1.27,62.26,1.49h.51v6.02c0,5.91,0,9.78,0,16.06ZM174.17,249.12v-25.03h0c.95,0,2.25-.56,3.35-1.08v22.58s.01.03.02.05c0,.02,0,.04.02.05.01.01.03.02.05.02s.03.02.05.02c.56.02,55.39,2.31,62.93,2.6,0,1.28,0,2.65.01,4.15-2.34-.11-30.35-1.52-66.43-3.36ZM259.25,215.56c-3.67,3.57-7.48,7.26-12.66,7.01-2.38-.11-4.15-.12-5.17.84-.53.51-.8,1.26-.82,2.27h-.52c-10.06-.24-36.23-.84-62.27-1.51v-1.31c.09-.04.19-.09.28-.13.3-.15.58-.28.81-.39.05-.02.09-.08.09-.13,0-.05-.04-.11-.09-.13,0,0-5.16-2.38-7.74-3.57-.54-.25-.92-.25-1.47,0-2.88,1.31-5.56,2.65-8.18,4.1-.04.02-.06.05-.07.09-.01.04,0,.08.02.12.43.68.92.93,1.43,1.04v.08c-21.97-.56-42.03-1.18-55.07-1.6,14.38-1.16,81.97-7.79,83.24-9.04.57-.6,14.02-14.87,16.02-18.85.5-.98,1.74-1.12,2.69-1.06,5.6.36,21.48,1.56,23.71,1.74,1.07.08,2.31.26,3.49.91.01,0,1.11.6,1.26,1.24.51,1.85,1.09,4.85.6,5.52-.03.04-.04.09-.02.13.02.05.05.08.1.09,1.49.45,2.82.71,4.11.96,2.64.51,4.92.95,7.45,2.9.04.03.08.04.13.03,1.52-.42,3.1-.7,4.64-.97.88-.16,1.79-.32,2.68-.5,1.74-.36,6.75,3.02,7.69,3.95.04.04.09.06.15.04.84-.27,1.42-.48,1.85-.63q1.17-.41,2.11-.29c.11.01.23.03.36.04-4.29.66-7.61,3.88-10.83,7.02ZM269.75,208.21c-1-.12-1.02-.12-2.24.31-.42.15-.97.35-1.76.6-1-.91-5.99-4.36-7.89-3.97-.88.19-1.79.35-2.67.5-1.52.27-3.08.54-4.59.95-2.55-1.95-4.86-2.4-7.52-2.91-1.23-.24-2.5-.49-3.91-.9.52-1.24-.52-5.13-.65-5.59-.18-.76-1.35-1.39-1.4-1.42-.57-.32-1.16-.53-1.73-.67.02-.02.04-.05.04-.08.12-3.47.13-6.99.14-10.4,0-1.41,0-2.82.02-4.22.11-14.77.09-29.79.08-44.31,0-5.62-.01-11.23-.01-16.84v-22.94c0-10.95,0-21.9,0-32.85.15.08.29.18.45.28,2.16,1.43,2.26,3.5,2.17,5.87-.11,2.96.06,2.99,2.97,3.47.06.01.13-.02.16-.08.33-.72.29-1.47.25-2.19-.02-.32-.04-.64-.02-.96.02-.52.01-1.04,0-1.55,0-.52-.02-1.04.01-1.56.06-1.12.33-1.82.82-2.12.5-.31,1.25-.23,2.3.22l.2.09c.83.35,3.02,1.27,3.02,2.47v6.67s.02.08.05.11c.44.4.88.42,1.27.44.3.02.53.03.73.21.05.05.13.05.18.01.72-.5.72-1.21.73-1.89,0-.15,0-.29.01-.44.04-.53.02-1.07,0-1.59-.02-.93-.04-1.88.18-2.82.29-1.2.56-1.73.97-1.93.42-.2,1.04-.06,2.17.48.02,0,.04.01.05.01.06,0,1.46.18,1.65,1.65.3,2.17.62,5.03.35,7.9,0,.06.02.12.08.15.95.49,1.87.54,2.82.56.06,0,.12-.04.14-.1.56-1.55.49-3.13.43-4.65-.03-.77-.06-1.55-.02-2.32.09-1.28.61-1.87,1.65-1.83,2.3.12,4.1,2,4.28,4.49.11,1.48.1,2.78,0,3.96-.08.82.04,1.32.37,1.58.33.26.84.25,1.62-.04.06-.02.09-.07.09-.13,0-.57,0-1.14.01-1.7.01-1.34.02-2.61-.03-3.9-.06-1.64.26-2.26.55-2.48.2-.16.46-.19.8-.11,1.65.46,2.82,2.2,2.79,4.14-.03,1.5-.01,41.2,0,79.6,0,21.9.02,42.92.02,54.99-1.07-.08-1.72-.16-2.16-.21Z"/>
      <g>
        <path class="cls-6" d="M225.19,207.95c-.53-.21-1.03-.53-1.5-.94-.47-.42-.97-.95-1.53-1.61-.35-.43-.76-.96-1.23-1.59-.47-.63-.91-1.26-1.34-1.89-.43-.63-.79-1.17-1.08-1.61-.29-.44-.45-.68-.47-.7-.4-.61-.91-1.22-1.53-1.83-.62-.62-1.27-1.04-1.95-1.27,1.36-.1,2.51-.51,3.44-1.23s1.64-1.62,2.12-2.7c.48-1.08.72-2.18.72-3.29,0-1.23-.22-2.3-.66-3.2-.44-.89-1.05-1.63-1.83-2.21s-1.68-1.01-2.7-1.29c-1.02-.28-2.1-.42-3.23-.42h-12.06v.38h.49c.65,0,1.21.23,1.68.7s.71,1.03.74,1.68v8.22h4.61v-9.46h.59c.39,0,.85,0,1.38-.02.18,0,.35,0,.52,0,.35,0,.68,0,1,.03,1.29.05,2.34.53,3.18,1.44.83.91,1.29,2.24,1.36,4.01.02.38.01.74-.04,1.1-.05.35-.1.64-.15.87-.25,1.11-.65,1.97-1.21,2.59-.55.62-1.18,1.04-1.87,1.27-.7.23-1.38.35-2.06.38-.15.01-.29.02-.42.02-.08,0-.15,0-.23,0-.1,0-.2,0-.29,0-.28-.01-.44-.02-.49-.02v.38c.35.03.69.14,1.01.34.18.11.36.25.54.41.48.45.92,1.05,1.32,1.78.08.18.22.48.43.91.21.43.48.91.8,1.46.31.54.64,1.11.96,1.68.33.58.63,1.1.91,1.57s.49.81.64,1.04c.56.83,1.21,1.53,1.97,2.08.76.56,1.65.97,2.67,1.25,1.02.28,2.19.41,3.5.41h3.14v-.38c-.68,0-1.29-.11-1.81-.32Z"/>
        <path class="cls-4" d="M208.59,207.58c-.48-.47-.72-1.03-.72-1.68v-7.88h-.15c-.51,0-.96.09-1.39.29-.34.16-.64.36-.9.63l-2.17,2.56v4.41c-.02.66-.27,1.22-.74,1.68s-1.03.7-1.68.7h-.49v.38h10.4v-.38h-.45c-.65,0-1.22-.23-1.7-.7Z"/>
        <path class="cls-3" d="M205.45,219.43l-6.55-8.52-.81-1.05-2.33-3.03,5.24-6.17,1.13-1.33,1.13-1.33.51-.6c.46-.48,1-.86,1.63-1.15.72-.33,1.49-.49,2.32-.49h.15v-.34h-8.43v.34h.38c.5,0,.86.19,1.06.57.2.38.15.78-.15,1.21h0l-7.93,10.29v2.74c.28.37.54.71.79,1.04.54.71,1.12,1.47,1.74,2.29.62.82,1.21,1.6,1.79,2.35.58.74,1.06,1.37,1.46,1.89.39.52.62.84.7.96.55.71,1.2,1.25,1.93,1.63.73.38,1.46.65,2.17.81.72.17,1.36.26,1.95.3.58.04,1.01.06,1.29.06h2.61v-.38c-.78-.03-1.47-.21-2.06-.55-.59-.34-1.17-.85-1.72-1.53Z"/>
        <path class="cls-2" d="M191.28,220.81c-.47-.47-.71-1.03-.74-1.68v-12.19c-.35.27-.72.55-1.12.82-1.01.68-2.18,1.27-3.49,1.76v9.61c-.03.66-.27,1.22-.74,1.68s-1.03.7-1.68.7h-.49v.38h10.44v-.38h-.49c-.65,0-1.22-.23-1.68-.7Z"/>
        <path class="cls-1" d="M184.1,207.76c.24-.08.48-.15.71-.24.39-.14.77-.28,1.13-.44.82-.35,1.57-.75,2.23-1.2,1.02-.69,1.81-1.38,2.38-2.06.06-.07.12-.14.17-.21v-6.26c-.05-1.12.59-1.68,1.89-1.68h.56v-.38h-9.53v.38h.61c1.29,0,1.93.57,1.93,1.7l-.04,6.09c-.06.11-.13.23-.21.33-.31.47-.68.89-1.13,1.28-.14.11-.28.23-.42.33-.23.17-.46.32-.7.45-.55.32-1.14.58-1.77.77-.91.28-1.87.41-2.87.41-1.92-.02-3.57-.53-4.97-1.53-1.4-1-2.47-2.41-3.21-4.23-.74-1.83-1.11-3.98-1.11-6.45s.39-4.75,1.17-6.6c.78-1.85,1.91-3.29,3.38-4.31,1.47-1.02,3.26-1.53,5.35-1.53,1.44,0,2.77.24,4.01.72,1.23.48,2.3,1.22,3.2,2.21.89,1,1.57,2.32,2.02,3.95h.34l-.3-6.09c-.73-.4-1.62-.77-2.67-1.11-1.05-.34-2.19-.61-3.44-.82-1.25-.2-2.57-.3-3.95-.3-2.85,0-5.35.56-7.49,1.68-2.14,1.12-3.79,2.72-4.95,4.79-1.16,2.06-1.74,4.49-1.74,7.26s.59,5.26,1.76,7.32c1.17,2.05,2.82,3.64,4.93,4.76,2.12,1.12,4.56,1.7,7.34,1.72,1.84,0,3.5-.21,4.99-.62.14-.04.28-.08.42-.12Z"/>
      </g>
    </g>
  </g>
</svg>